PSF_ID_stride2.mot
nRows=7
nColumns=38

name PSF_ID_stride2.mot
datacolumns 38
datarows 7
range 0.6950000000 0.7250000000
endheader
time	pelvis_tilt_moment	pelvis_list_moment	pelvis_rotation_moment	pelvis_tx_force	pelvis_ty_force	pelvis_tz_force	hip_flexion_r_moment	hip_adduction_r_moment	hip_rotation_r_moment	knee_angle_r_moment	ankle_angle_r_moment	subtalar_angle_r_moment	mtp_angle_r_moment	hip_flexion_l_moment	hip_adduction_l_moment	hip_rotation_l_moment	knee_angle_l_moment	ankle_angle_l_moment	subtalar_angle_l_moment	mtp_angle_l_moment	lumbar_extension_moment	lumbar_bending_moment	lumbar_rotation_moment	arm_flex_r_moment	arm_add_r_moment	arm_rot_r_moment	elbow_flex_r_moment	pro_sup_r_moment	wrist_flex_r_moment	wrist_dev_r_moment	arm_flex_l_moment	arm_add_l_moment	arm_rot_l_moment	elbow_flex_l_moment	pro_sup_l_moment	wrist_flex_l_moment	wrist_dev_l_moment
        0.6950000000	      -19.2386508647	      -74.8008419048	      -52.5251294852	       55.1134475656	     -106.2651920575	       97.7687313802	     -138.9546929885	      -14.3871766236	       -3.9340883888	      -75.5161408975	       -2.4188446250	       -0.2366550117	       -0.1063477286	       73.4310110501	      -37.3033145616	       13.7699932351	       22.6203619273	        4.0105168104	       -1.1202811114	        0.1748783185	      -17.2122950625	       -2.0865712036	      -15.7458922264	       -3.1807214595	       -2.2759875178	       -1.7180685401	       -1.3737722786	       -0.0241905798	       -0.2069760886	        0.0935449221	       -0.4499227293	        2.1907645079	        2.0370849753	       -1.2840089378	        0.0828977359	        0.1824340897	        0.1723549595	
        0.7000000000	       -1.7668856007	      -67.3623394570	      -41.1150309584	       22.0495995961	       84.9332648914	      142.5729821299	     -114.7152610903	       -6.8566662841	       -2.9114437712	      -67.9197601490	       -1.2023226090	       -0.2486161113	       -0.0197680811	       63.0283236962	      -28.9264846575	       13.2284613054	       22.6421264261	        4.2014582197	       -1.0898964380	        0.2046328286	       -8.4284629804	      -13.4547957535	      -12.8607349986	       -4.0000890977	       -1.6531125594	       -1.1526483603	       -1.0408537667	       -0.0123501853	       -0.1424910135	        0.0903700146	       -2.1636201459	        1.6818366109	        1.8205260222	       -1.1583493720	        0.0687584689	        0.1634799557	        0.1637682453	
        0.7050000000	       26.5884193603	       10.0713127193	      -19.9203568275	       -2.0352820624	      230.0723767154	      123.5638379494	      -38.4285637507	      -12.6497341105	        3.2417374127	      -19.0387350453	       19.6910335886	        4.6404451388	        0.0827830544	       55.0941094341	      -21.1986711295	       12.0511953538	       21.9881258741	        4.3942886417	       -1.0530812904	        0.2312557220	       10.0914456620	      -25.6151019847	       -8.6670274155	       -4.6999569336	       -0.7062713520	       -0.3632350165	       -0.2179187582	       -0.0032330970	       -0.0462175192	        0.0456477161	       -3.9728878615	        1.0564177776	        1.4739271177	       -0.5228600198	        0.0417511937	        0.1412478458	        0.1046382884	
        0.7100000000	       51.9144627194	       55.6361195906	        1.6628004371	      -31.0484096515	      378.0682934488	      102.8498365087	      -10.2882900202	      -22.4865983323	       15.0098017283	        2.0322671986	       22.4431388152	       12.0869731469	        0.1899700791	       50.6408931688	      -14.8256781427	       10.5129590009	       20.7763132105	        4.5621456027	       -1.0092796003	        0.2530781165	       33.4792324129	      -36.4562347376	       -3.7070819609	       -4.8615029133	        0.4103697384	        0.5132586994	        0.9424114861	        0.0008543727	        0.0659668796	       -0.0309610187	       -5.5025080384	        0.4227742425	        1.0419472407	        0.4813123991	        0.0060528784	        0.1173395665	        0.0082092781	
        0.7150000000	       65.8698679318	       66.8120593598	       20.0086557423	      -47.1678496754	      430.0630013541	       70.4577099954	      -12.6431953822	      -34.9559261910	       29.5404457928	        5.6221519230	       10.4234297517	       20.2759384229	        0.2858278215	       50.5733245529	      -10.2273567468	        8.8257915021	       19.5016589662	        4.6684468801	       -0.9555946872	        0.2664592113	       54.6197623382	      -41.8415501868	        1.2966076048	       -4.6503994028	        1.4427372243	        1.2834667294	        2.1793598500	        0.0005155509	        0.1698179923	       -0.1200499601	       -6.1409280599	       -0.0595863136	        0.5934161454	        1.6044114433	       -0.0314098531	        0.0929115309	       -0.1018385638	
        0.7200000000	       72.0413806985	       70.8269912886	       35.1811959384	      -52.2403155512	      438.8164637963	       12.9701841709	      -30.3132537111	      -47.2176149234	       42.2706066778	        7.0124429216	       -7.7666340426	       28.3959718057	        0.3599930154	       53.2954232391	       -6.7085375565	        7.1058127900	       18.7231237412	        4.7200419196	       -0.8907090073	        0.2728999295	       67.7221491376	      -43.8231852158	        5.7739744042	       -3.7554429194	        2.1588930630	        1.8114411859	        3.2147425505	       -0.0030323244	        0.2471022845	       -0.1995237057	       -6.3372823156	       -0.3234920171	        0.2031409488	        2.5741001859	       -0.0632840095	        0.0693848336	       -0.1992374131	
        0.7250000000	       62.3048817587	       54.8065297788	       45.5260611227	      -30.9275512220	      318.1595955774	      -49.7505083164	      -62.8604862019	      -55.0677141246	       51.0450604258	        4.7006133612	      -31.0150659513	       35.1682953995	        0.4026140721	       58.4947903924	       -3.8843184601	        5.4037123310	       18.9540115652	        4.6675717015	       -0.8082333926	        0.2686997865	       68.6936034899	      -38.6182429964	        9.1642009068	       -2.4895781713	        2.3517153909	        1.9712476327	        3.8318216569	       -0.0083968317	        0.2817019509	       -0.2509565777	       -5.6598956648	       -0.2376274180	       -0.0599388414	        3.1734452585	       -0.0834054207	        0.0489491833	       -0.2621504289	
